<?xml version="1.0" encoding="utf-8"?>
<!-- Generator: Adobe Illustrator 19.1.0, SVG Export Plug-In . SVG Version: 6.00 Build 0)  -->
<svg version="1.1" id="Слой_1" xmlns="http://www.w3.org/2000/svg" xmlns:xlink="http://www.w3.org/1999/xlink" x="0px" y="0px"
	 viewBox="0 0 296.5 38" style="enable-background:new 0 0 296.5 38;" xml:space="preserve">
<style type="text/css">
	.st0{fill:#D76444;}
	.st1{fill:#393839;}
</style>
<g>
	<g>
		<g>
			<path class="st0" d="M59.6,18.7c-7.4,2.6-13.2,9.6-14.6,18.4c0,0.3,0.2,0.6,0.5,0.6h5.9c2,0,3.8-1.4,4.3-3.3L59.6,18.7z"/>
			<path class="st0" d="M23.2,36.9c-0.1,0.3,0.1,0.7,0.5,0.7h12.2c0.4,0,0.7-0.2,0.8-0.6c3.1-10.4,11-18.7,23.1-21.1
				c0.4-0.1,0.7-0.3,0.7-0.7l0.7-2.8C45.6,13.2,30.1,20.9,23.2,36.9z"/>
			<g>
				<path class="st0" d="M63.6,2.7l0.6-2.4H45.6H27H12.3C10,0.3,8,1.9,7.5,4.1L5.2,13c-0.2,0.6,0.5,1.1,1,0.9
					C21.7,7.1,41.4,3.5,62.7,3.5C63.1,3.5,63.5,3.2,63.6,2.7z"/>
				<path class="st0" d="M2,25.9l-1.9,7.8c-0.5,2,1,3.9,3.1,3.9l9.2,0c0.4,0,0.8-0.2,1-0.6c7.7-15.8,23.8-26.3,47.9-27.4
					c0.4,0,0.8-0.3,0.9-0.7l0.6-2.6C37.2,6.6,18.3,12.7,3.1,24.2C2.6,24.6,2.2,25.2,2,25.9z"/>
			</g>
		</g>
		<g>
			<path class="st1" d="M74.2,32.4c0.5,0,0.6,0,0.8,0.2c0.2,0.2,0.3,0.6-0.1,2.3c-0.4,1.7-0.7,2-1,2.3c-0.2,0.1-0.4,0.2-0.9,0.2
				h-1.4c-0.5,0-0.6,0-0.8-0.2c-0.2-0.2-0.3-0.6,0.1-2.3c0.4-1.7,0.7-2,1-2.3c0.2-0.1,0.4-0.2,0.9-0.2H74.2z M71.4,36.6
				c0,0,0.1,0.1,0.3,0.1H73c0.2,0,0.3,0,0.4-0.1c0.1-0.1,0.2-0.3,0.6-1.7c0.4-1.4,0.3-1.7,0.2-1.7c0,0-0.1-0.1-0.3-0.1h-1.2
				c-0.2,0-0.3,0-0.4,0.1c-0.1,0.1-0.2,0.3-0.6,1.7C71.3,36.4,71.4,36.6,71.4,36.6z"/>
			<path class="st1" d="M79,37.2c-0.2,0.1-0.4,0.2-0.9,0.2h-1.4c-0.5,0-0.6,0-0.8-0.2c-0.2-0.2-0.3-0.6,0.1-2.3c0.4-1.7,0.7-2,1-2.3
				c0.2-0.1,0.4-0.2,0.9-0.2h1.4c0.5,0,0.6,0,0.8,0.2c0.2,0.2,0.3,0.6,0.1,1.4h-0.8c0.1-0.6,0.1-0.8,0-0.9c0,0-0.1-0.1-0.3-0.1h-1.2
				c-0.2,0-0.3,0-0.4,0.1c-0.1,0.1-0.2,0.3-0.6,1.7c-0.4,1.4-0.3,1.7-0.3,1.7c0,0,0.1,0.1,0.3,0.1h1.2c0.2,0,0.3,0,0.4-0.1
				c0.1-0.1,0.2-0.2,0.4-0.9h0.8C79.5,36.7,79.3,37,79,37.2z"/>
			<path class="st1" d="M82.1,37.4h-0.9l1-1.5L81,32.4h0.8l0.9,2.7l0,0l1.7-2.7h0.9L82.1,37.4z"/>
			<path class="st1" d="M93.9,36H92l-0.8,1.4h-0.8l2.8-4.8c0.1-0.2,0.1-0.2,0.3-0.2h0.7c0.2,0,0.2,0,0.2,0.2l0.4,4.8H94L93.9,36z
				 M92.4,35.3h1.5l-0.1-2.2h-0.1L92.4,35.3z"/>
			<path class="st1" d="M99.6,35.4c-0.2,0.1-0.4,0.2-0.8,0.2h-1.7l-0.5,1.8h-0.8l1.2-5h2.5c0.4,0,0.6,0,0.7,0.2
				c0.2,0.2,0.3,0.5,0,1.4C100.2,34.9,99.9,35.2,99.6,35.4z M98.8,34.9c0.2,0,0.3,0,0.4-0.1c0.1-0.1,0.2-0.2,0.4-0.8
				c0.1-0.6,0.1-0.8,0-0.8c0,0-0.1-0.1-0.4-0.1h-1.5l-0.4,1.8H98.8z"/>
			<path class="st1" d="M104.1,37.2c-0.2,0.1-0.4,0.2-0.9,0.2h-1.4c-0.5,0-0.6,0-0.8-0.2c-0.2-0.2-0.3-0.6,0.1-2.3
				c0.4-1.7,0.7-2,1-2.3c0.2-0.1,0.4-0.2,0.9-0.2h1.4c0.5,0,0.6,0,0.8,0.2c0.2,0.2,0.3,0.6,0.1,1.4h-0.8c0.1-0.6,0.1-0.8,0-0.9
				c0,0-0.1-0.1-0.3-0.1H103c-0.2,0-0.3,0-0.4,0.1c-0.1,0.1-0.2,0.3-0.6,1.7c-0.4,1.4-0.3,1.7-0.3,1.7c0,0,0.1,0.1,0.3,0.1h1.2
				c0.2,0,0.3,0,0.4-0.1c0.1-0.1,0.2-0.2,0.4-0.9h0.8C104.6,36.7,104.4,37,104.1,37.2z"/>
			<path class="st1" d="M108.6,33.1l-1.1,4.3h-0.8l1.1-4.3h-1.6l0.2-0.7h3.9l-0.2,0.7H108.6z"/>
			<path class="st1" d="M68.4,33.1l-1.1,4.3h-0.8l1.1-4.3l0.2-0.7H71l-0.2,0.7H68.4z"/>
			<path class="st1" d="M111.3,32.4h2.6c0.4,0,0.6,0.1,0.7,0.2c0.2,0.2,0.2,0.4,0,1.2c-0.2,0.7-0.5,0.9-1,1v0
				c0.5,0.1,0.7,0.4,0.5,1.1c-0.2,0.8-0.4,1-0.6,1.2c-0.2,0.1-0.5,0.2-0.8,0.2h-2.6L111.3,32.4z M113.4,35.2c0,0-0.1-0.1-0.3-0.1
				h-1.7l-0.4,1.6h1.7c0.2,0,0.3,0,0.4-0.1c0.1-0.1,0.2-0.2,0.3-0.7C113.5,35.4,113.5,35.3,113.4,35.2z M113.2,34.5
				c0.2,0,0.3,0,0.4-0.1c0.1-0.1,0.2-0.2,0.3-0.6c0.1-0.5,0.1-0.6,0-0.6c0,0-0.1-0.1-0.3-0.1h-1.6l-0.3,1.4H113.2z"/>
			<path class="st1" d="M118.5,37.4h-3.4l1.2-5h3.4l-0.2,0.7H117l-0.3,1.4h2.1l-0.2,0.7h-2.1l-0.4,1.6h2.6L118.5,37.4z"/>
			<path class="st1" d="M123.8,37.4H123l0.6-2.2h-2.4l-0.6,2.2h-0.8l1.2-5h0.8l-0.5,2h2.4l0.5-2h0.8L123.8,37.4z"/>
			<path class="st1" d="M129.2,37.4h-0.8l0.6-2.2h-2.4l-0.6,2.2h-0.8l1.2-5h0.8l-0.5,2h2.4l0.5-2h0.8L129.2,37.4z"/>
			<path class="st1" d="M133.6,36h-1.9l-0.8,1.4h-0.8l2.8-4.8c0.1-0.2,0.1-0.2,0.3-0.2h0.7c0.2,0,0.2,0,0.2,0.2l0.4,4.8h-0.9
				L133.6,36z M132.1,35.3h1.5l-0.1-2.2h-0.1L132.1,35.3z"/>
			<path class="st1" d="M148.5,32.4l-2.5,2.3l1.3,2.6h-0.9l-1.1-2.2h-0.4l-0.6,2.2h-0.8l1.2-5h0.8l-0.5,2h0.4l2.1-2H148.5z"/>
			<path class="st1" d="M151.9,32.4c0.5,0,0.6,0,0.8,0.2c0.2,0.2,0.3,0.6-0.1,2.3c-0.4,1.7-0.7,2-1,2.3c-0.2,0.1-0.4,0.2-0.9,0.2
				h-1.4c-0.5,0-0.6,0-0.8-0.2c-0.2-0.2-0.3-0.6,0.1-2.3c0.4-1.7,0.7-2,1-2.3c0.2-0.1,0.4-0.2,0.9-0.2H151.9z M149.2,36.6
				c0,0,0.1,0.1,0.3,0.1h1.2c0.2,0,0.3,0,0.4-0.1c0.1-0.1,0.2-0.3,0.6-1.7c0.4-1.4,0.3-1.7,0.2-1.7c0,0-0.1-0.1-0.3-0.1h-1.2
				c-0.2,0-0.3,0-0.4,0.1c-0.1,0.1-0.2,0.3-0.6,1.7C149.1,36.4,149.1,36.6,149.2,36.6z"/>
			<path class="st1" d="M158.4,37.4h-0.8l1-4.2h-0.1l-2.2,4c-0.1,0.2-0.1,0.2-0.3,0.2h-0.5c-0.2,0-0.2,0-0.2-0.2l-0.1-4.1h-0.1
				l-1.1,4.3h-0.8l1.2-5h1.2c0.2,0,0.2,0.1,0.2,0.2l0.1,3.7h0.1l1.9-3.7c0.1-0.2,0.2-0.2,0.4-0.2h1.2L158.4,37.4z"/>
			<path class="st1" d="M163.9,37.4h-0.8l1.1-4.3h-2.4l-1.1,4.3h-0.8l1.2-5h0.8l0,0h2.4l0,0h0.8L163.9,37.4z"/>
			<path class="st1" d="M168.2,36h-1.9l-0.8,1.4h-0.8l2.8-4.8c0.1-0.2,0.1-0.2,0.3-0.2h0.7c0.2,0,0.2,0,0.2,0.2l0.4,4.8h-0.9
				L168.2,36z M166.7,35.3h1.5l-0.1-2.2h-0.1L166.7,35.3z"/>
			<path class="st1" d="M173.9,37.4h-0.8l0.6-2.2h-2.4l-0.6,2.2H170l1.2-5h0.8l-0.5,2h2.4l0.5-2h0.8L173.9,37.4z"/>
			<path class="st1" d="M176.7,32.4h0.8l-0.9,3.7h0.1l2.7-3.5c0.1-0.2,0.2-0.2,0.4-0.2h0.9l-1.2,5h-0.8l1-3.9h-0.1l-2.8,3.7
				c-0.1,0.2-0.2,0.2-0.4,0.2h-0.8L176.7,32.4z"/>
			<path class="st1" d="M181.9,36c-0.2,0.6-0.3,1.2-0.4,1.4h-0.8c0.1-0.3,0.2-0.7,0.4-1.4c0.2-0.6,0.4-0.9,1-0.9l0,0
				c-0.5-0.1-0.7-0.5-0.5-1.2c0.2-0.7,0.4-1,0.7-1.2c0.2-0.1,0.5-0.2,0.9-0.2h2.5l-1.2,5h-0.8l0.5-2h-1.4
				C182.2,35.4,182,35.6,181.9,36z M184.3,34.7l0.4-1.6h-1.4c-0.5,0-0.7,0.2-0.9,0.8c-0.1,0.5,0,0.8,0.4,0.8H184.3z"/>
			<path class="st1" d="M136.4,36c-0.2,0.6-0.3,1.2-0.4,1.4h-0.8c0.1-0.3,0.2-0.7,0.4-1.4c0.2-0.6,0.4-0.9,1-0.9l0,0
				c-0.5-0.1-0.7-0.5-0.5-1.2c0.2-0.7,0.4-1,0.7-1.2c0.2-0.1,0.5-0.2,0.9-0.2h2.5l-1.2,5h-0.8l0.5-2h-1.4
				C136.7,35.4,136.5,35.6,136.4,36z M138.8,34.7l0.4-1.6h-1.4c-0.5,0-0.7,0.2-0.9,0.8c-0.1,0.5,0,0.8,0.4,0.8H138.8z"/>
			<path class="st1" d="M90.1,32.4h-0.3h-0.5h-1.7h-0.6h-0.2c0,0-0.5,1.6-0.8,2.5c-0.3,0.9-0.8,1.5-1.2,1.8c0,0,0,0.1,0.1,0.2
				l-0.1,0.5h3.3h0.6L88.5,38h0.8l0.3-1.3h-0.6L90.1,32.4z M85.9,36.7c0.3-0.4,0.7-1,1-1.8c0.2-0.7,0.4-1.3,0.6-1.8h1.7l-0.9,3.6
				H85.9z"/>
			<polygon class="st1" points="85.1,38 85.4,36.7 84.6,36.7 84.3,38 			"/>
		</g>
		<g>
			<path class="st1" d="M100.7,0.4h13.8c2,0,3.3,0.3,3.9,1.2c0.8,1,1,2.6,0.3,5.3c-0.9,3.4-2.5,4.8-5.2,5.5l0,0.1
				c2.6,0.5,3.6,1.6,2.6,5.5c-0.8,3.2-1.8,4.3-3,5.3c-1.1,0.9-2.7,1.3-4.6,1.3H94.7L100.7,0.4z M110.8,14.7
				c-0.2-0.2-0.5-0.3-1.4-0.3h-6.5l-1.5,5.8h6.5c0.9,0,1.2,0,1.5-0.3c0.3-0.3,0.7-0.5,1.2-2.5C111.1,15.3,111,15,110.8,14.7z
				 M110.2,10.4c0.9,0,1.2,0,1.4-0.2c0.4-0.3,0.8-1,1.2-2.6c0.4-1.6,0.3-2.2,0.1-2.5c-0.2-0.2-0.4-0.3-1.4-0.3h-6.3l-1.4,5.7H110.2z
				"/>
			<path class="st1" d="M134.3,4.9l-4.9,19.6h-5.6l4.9-19.6h-7.3l1.1-4.5h19.9l-1.1,4.5H134.3z"/>
			<path class="st1" d="M158.6,0.4c2.4,0,3.4,0.3,4.1,1.2c1,1.3,1.5,3.5-0.3,10.9c-1.9,7.4-3.4,9.6-5.1,10.9
				c-1.1,0.8-2.2,1.2-4.6,1.2h-7.5c-2.4,0-3.4-0.3-4.1-1.2c-1.1-1.3-1.5-3.5,0.3-10.9c1.8-7.4,3.4-9.6,5.1-10.9
				c1.1-0.8,2.2-1.2,4.6-1.2H158.6z M146.1,19.7c0.2,0.2,0.5,0.3,1.6,0.3h4.6c1.1,0,1.4-0.1,1.7-0.3c0.4-0.3,1.1-1.2,2.6-7.2
				c1.5-6.1,1.3-7,1-7.2c-0.2-0.2-0.4-0.3-1.5-0.3h-4.6c-1.1,0-1.4,0.1-1.8,0.3c-0.4,0.3-1,1.1-2.5,7.2
				C145.6,18.6,145.9,19.4,146.1,19.7z"/>
			<path class="st1" d="M210.3,0.4c2.4,0,3.4,0.3,4.1,1.2c1,1.3,1.5,3.5-0.3,10.9c-1.9,7.4-3.4,9.6-5.1,10.9
				c-1.1,0.8-2.2,1.2-4.6,1.2h-7.5c-2.4,0-3.4-0.3-4.1-1.2c-1.1-1.3-1.5-3.5,0.3-10.9c1.8-7.4,3.4-9.6,5.1-10.9
				c1.1-0.8,2.2-1.2,4.6-1.2H210.3z M197.9,19.7c0.2,0.2,0.5,0.3,1.6,0.3h4.6c1.1,0,1.4-0.1,1.7-0.3c0.4-0.3,1.1-1.2,2.6-7.2
				c1.5-6.1,1.3-7,1-7.2c-0.2-0.2-0.4-0.3-1.5-0.3h-4.6c-1.1,0-1.4,0.1-1.8,0.3c-0.4,0.3-1,1.1-2.5,7.2
				C197.4,18.6,197.6,19.4,197.9,19.7z"/>
			<path class="st1" d="M234.8,15.3c-1,0.7-2.4,1-4.3,1h-7.3l-2,8.2h-5.6l6-24h12.9c2,0,3.2,0.2,3.8,1c0.9,1,1.4,2.5,0.3,7
				C237.5,12.8,236.1,14.3,234.8,15.3z M229.4,11.9c1.3,0,1.6-0.1,2-0.3c0.4-0.3,0.9-1,1.5-3.3c0.6-2.3,0.4-2.9,0.1-3.2
				c-0.2-0.2-0.5-0.3-1.8-0.3H226l-1.8,7.1H229.4z"/>
			<path class="st1" d="M83.7,0.4c-6.5,0-8.2,1.1-10,8.2c-1.7,6.8-4.1,15.9-4.1,15.9h5.7c0,0,1.1-4.3,2.2-8.6h8.7L84,24.5h5.7l6-24
				H83.7z M78.6,11.6c0.6-2.5,1.2-4.6,1.3-5.1c0.5-1.7,1.8-1.8,2.9-1.8h6.3l-1.9,6.9H78.6z"/>
			<path class="st1" d="M191,0.4h-15.5c-2.6,0-3,1.1-3.6,2.8c-0.8,2.3-1.4,4.2-1.9,5.9c-1.2,4-2.2,7.8-5.9,10.7
				c-0.3,0.1-0.6,0.2-1,0.2h-0.7l-1.9,7.6h5l0.9-3.1h15.9l-0.7,3.1h4.9l1.9-7.6h-2.6L191,0.4z M180.5,20h-10.1
				c2-1.9,3.2-5.2,4.4-9.3c0.8-2.7,1.2-3.9,1.6-5.1c0.2-0.5,0.5-0.9,1.2-0.9h6.7L180.5,20z"/>
		</g>
	</g>
	<g>
		<g>
			<polygon class="st0" points="288,27.2 290.9,27.2 291,26.6 288.8,26.6 289.1,25.3 291,25.3 291.1,24.7 289.3,24.7 289.6,23.5 
				291.8,23.5 291.9,23 289.1,23 			"/>
			<polygon class="st0" points="293.1,23 293,23.5 294.3,23.5 293.4,27.2 294.1,27.2 295,23.5 296.3,23.5 296.5,23 			"/>
			<path class="st0" d="M284.6,23c-0.2,0-0.5,0.2-0.5,0.4c-0.1,0.5-0.3,1.3-0.5,1.9c-0.3,1-0.5,1.3-1.1,1.5l0.2,0.5
				c0.9-0.2,1.2-0.7,1.6-2.2c0.1-0.4,0.3-1.1,0.4-1.4c0-0.1,0.1-0.2,0.2-0.2h1.4l-0.9,3.7h0.7L287,23h0H284.6z"/>
		</g>
		<g>
			<path class="st0" d="M280,32.6c-12.5-3.2-29.9-2.5-37.2,1.2c-2,1-2.2,3.1-1.9,3.8c0,0.1,0.2,0.1,0.3,0.1c0.8-0.5,2.6-1.4,6.7-2.8
				c7.3-2.4,19.5-4.2,32.2-1.9l0.1,0l0,0C280.2,32.9,280.2,32.7,280,32.6z"/>
			<path class="st0" d="M246.4,12.9c1.3-0.1,2.6-0.7,3.9-1.6c-2.1,5.2-3.2,10.8-3,14.5c0.1,1,0.9,1.6,1.6,2l0.1-0.1
				c0.6-7.7,3.1-15.9,10.5-24.7c0.3-0.8-0.4-2.4-1.8-3.1c-0.1-0.1-0.3,0-0.3,0.1c-4.7,6.3-8.8,10.3-13.5,11.8
				c-0.1,0-0.1,0.1-0.1,0.1C243.9,12.7,245.3,13,246.4,12.9z"/>
			<path class="st0" d="M287.4,13.8c-0.8,0-1.5,0-2.2,0c1.6-6.6-1.3-11.8-7.5-13.1c-8.5-1.8-16.1,2.5-20,9.5
				c-3.2,5.8-2.5,14.6,3.8,17c0.2,0.1,0.2-0.1,0.2-0.1c-3.4-3.6-2.3-11.1,1-16.5c3.4-5.5,8.8-10,14.6-9.1c2.9,0.5,6.6,4.1,3.7,12.7
				c-10.6,1.9-16.9,10-15.5,12.3c1.1,2,12.2,1.6,17.6-8c0.1-0.1,0-0.2-0.1-0.3c-0.8-0.3-2.4-0.5-3.1-0.4l0-0.1
				c1-0.2,2.1-0.3,3.9-0.5c3.4-0.2,8.4,0.2,11,1.6l0.2-0.1C295.7,17.9,293.8,14.2,287.4,13.8z M266.4,26.5
				c-1.5-0.5,3.5-6.3,12.3-8.4c0.2-0.1,0.5-0.1,0.8-0.2C275.6,24.2,268,27.1,266.4,26.5z"/>
		</g>
	</g>
</g>
</svg>
